<?xml version="1.0" standalone="no"?><!DOCTYPE svg PUBLIC "-//W3C//DTD SVG 1.1//EN" "http://www.w3.org/Graphics/SVG/1.1/DTD/svg11.dtd"><svg t="1780816854476" class="icon" viewBox="0 0 1024 1024" version="1.1" xmlns="http://www.w3.org/2000/svg" p-id="29530" xmlns:xlink="http://www.w3.org/1999/xlink" width="200" height="200"><path d="M644.820149 1023.972567H99.664235a96.671845 96.671845 0 0 1-70.03693-29.050688A93.590712 93.590712 0 0 1 0.013619 924.997549V801.271099a24.659305 24.659305 0 0 1 0.69607-5.916596 85.452834 85.452834 0 0 1 29.634159-49.492627 60.251004 60.251004 0 0 1 72.411757 3.766967 75.441709 75.441709 0 0 0 11.044993 5.384307 30.708972 30.708972 0 0 1 7.052828 2.149628 106.058554 106.058554 0 0 0 91.584392 2.692153 108.750708 108.750708 0 0 0 36.799585-24.751431 112.957837 112.957837 0 0 0 24.782141-36.574387 111.043644 111.043644 0 0 0 8.833947-44.650845 114.431868 114.431868 0 0 0-8.946547-45.72566 110.337338 110.337338 0 0 0-24.669541-37.116912 108.423145 108.423145 0 0 0-36.850767-24.751431 111.299552 111.299552 0 0 0-90.775722 1.074814 56.013166 56.013166 0 0 0-9.857581 3.766967c-9.212692 4.299256-18.312784 8.608749-26.942005 12.908005a76.209433 76.209433 0 0 1-36.472023 6.45912A49.5131 49.5131 0 0 1 12.297208 547.369315a91.348957 91.348957 0 0 1-12.191462-46.800474V382.216461a100.61283 100.61283 0 0 1 99.886051-100.060068h124.555592q-2.794516-6.418175-5.384306-12.908005a188.051511 188.051511 0 0 1-12.283589-67.784938 195.810644 195.810644 0 0 1 16.163155-79.075604 205.965078 205.965078 0 0 1 42.664999-63.46521 208.954085 208.954085 0 0 1 62.973867-42.992561 197.561056 197.561056 0 0 1 155.479527 0 210.141498 210.141498 0 0 1 62.984102 42.992561 204.880028 204.880028 0 0 1 42.613818 63.46521 202.095747 202.095747 0 0 1-0.69607 159.768547h56.187183a96.01672 96.01672 0 0 1 70.03693 29.582977 99.067145 99.067145 0 0 1 28.661707 70.466855v98.442729c4.258311-2.149628 8.567803-3.766967 13.041077-5.916595a189.627905 189.627905 0 0 1 146.481798 2.149628 200.519354 200.519354 0 0 1 62.595123 41.968929A204.409157 204.409157 0 0 1 1008.291547 581.763364a195.513791 195.513791 0 0 1 15.354486 76.41416 192.442894 192.442894 0 0 1-15.45685 76.925976 202.413073 202.413073 0 0 1-42.13271 61.868343 194.326377 194.326377 0 0 1-62.595122 42.490981 192.002732 192.002732 0 0 1-146.481798 1.617339 122.968962 122.968962 0 0 1-13.041077-5.916595v89.833981a96.32381 96.32381 0 0 1-28.927852 69.934566A94.982852 94.982852 0 0 1 644.820149 1023.972567zM53.651958 805.038066v119.959483a42.624054 42.624054 0 0 0 13.409584 31.732604 44.261866 44.261866 0 0 0 32.326312 13.45053h545.155914a42.204364 42.204364 0 0 0 31.834968-13.45053 42.992561 42.992561 0 0 0 13.143441-31.732604V785.670941a26.90106 26.90106 0 0 1 15.62063-24.208907 27.832565 27.832565 0 0 1 28.774307 3.766967 155.725199 155.725199 0 0 0 43.094925 26.358535 135.631295 135.631295 0 0 0 104.574287-1.617339 148.672372 148.672372 0 0 0 45.797315-30.708973 152.388157 152.388157 0 0 0 30.811335-45.725659 139.674643 139.674643 0 0 0 10.77885-55.409223 137.811632 137.811632 0 0 0-11.096176-54.866697 141.506945 141.506945 0 0 0-30.811335-46.268185 138.395102 138.395102 0 0 0-45.735897-30.708973 135.518695 135.518695 0 0 0-104.512869-1.617339 152.244849 152.244849 0 0 0-43.094925 25.826246 26.942005 26.942005 0 0 1-44.394937-20.472649V382.216461a45.039826 45.039826 0 0 0-13.430058-32.817655 41.672076 41.672076 0 0 0-31.568823-13.45053H539.273411a26.890824 26.890824 0 0 1-20.472648-44.108321 134.894279 134.894279 0 0 0 32.326311-90.376505 141.793562 141.793562 0 0 0-11.587519-57.558851 146.614871 146.614871 0 0 0-31.46646-46.800474 158.120499 158.120499 0 0 0-46.493384-31.732605 142.284905 142.284905 0 0 0-112.057041 0 158.120499 158.120499 0 0 0-46.493384 31.732605 146.768415 146.768415 0 0 0-31.517642 46.800474 142.653413 142.653413 0 0 0-11.495392 57.569087 134.290336 134.290336 0 0 0 8.670167 48.417813A156.769304 156.769304 0 0 0 292.772489 292.382481a26.890824 26.890824 0 0 1-21.066355 43.576031H99.305963a42.316964 42.316964 0 0 0-32.326311 13.982819 43.483905 43.483905 0 0 0-13.685966 32.27513v116.694095a55.27615 55.27615 0 0 0 2.907116 17.749786c1.023632-0.542525 3.234678-1.074814 6.407939-2.149628 8.035514-3.726022 16.224574-7.472517 24.669541-11.792245 3.930748-1.617339 8.670167-3.766967 14.494635-5.916595a169.779672 169.779672 0 0 1 185.277467 36.042097 175.450596 175.450596 0 0 1 36.093279 54.334408 173.464749 173.464749 0 0 1 0 132.867488 177.139589 177.139589 0 0 1-36.093279 53.228885 169.779672 169.779672 0 0 1-53.873774 36.042098 162.327628 162.327628 0 0 1-134.095846-2.149629 113.223981 113.223981 0 0 1-24.454578-11.259956 30.412119 30.412119 0 0 0-14.76078-6.459121 52.891087 52.891087 0 0 0-6.192976 15.600158z" fill="" p-id="29531"></path></svg>